<?xml version="1.0" encoding="UTF-8" standalone="no"?><!DOCTYPE svg PUBLIC "-//W3C//DTD SVG 1.1//EN" "http://www.w3.org/Graphics/SVG/1.1/DTD/svg11.dtd"><svg width="100%" height="100%" viewBox="0 0 158 71" version="1.1" xmlns="http://www.w3.org/2000/svg" xmlns:xlink="http://www.w3.org/1999/xlink" xml:space="preserve" style="fill-rule:evenodd;clip-rule:evenodd;stroke-linejoin:round;stroke-miterlimit:1.41421;"><rect id="StaplesEN" x="0" y="0" width="158" height="71" style="fill:none;"/><clipPath id="_clip1"><rect id="StaplesEN1" x="0" y="0" width="158" height="71"/></clipPath><g clip-path="url(#_clip1)"><g><path d="M14.474,46.777l0,0.832l-1.543,0l0,10.849l1.543,0l0,0.832l-4.005,0l0,-0.832l1.526,0l0,-9.879l-0.035,0l-4.437,10.192l-0.59,0l-4.437,-10.192l-0.035,0l0,9.879l1.439,0l0,0.832l-3.9,0l0,-0.832l1.525,0l0,-10.849l-1.525,0l0,-0.832l2.634,0l4.576,10.693l0.036,0l4.593,-10.693l2.635,0Z" style="fill:#231f20;fill-rule:nonzero;"/><path d="M16.238,55.2c0,1.959 1.248,3.485 3.242,3.485c1.75,0 3.241,-1.319 3.241,-3.485c0,-1.681 -1.248,-3.171 -3.241,-3.171c-1.873,0 -3.242,1.543 -3.242,3.171Zm7.385,3.311l1.334,0l0,0.779l-2.202,0l0,-1.387c-1.022,1.145 -2.357,1.561 -3.275,1.561c-2.133,0 -4.108,-1.543 -4.108,-4.228c0,-1.891 1.68,-3.989 4.108,-3.989c1.213,0 2.461,0.555 3.241,1.596l0.034,0l0,-1.422l2.202,0l0,0.779l-1.334,0l0,6.311Z" style="fill:#231f20;fill-rule:nonzero;"/><path d="M25.925,59.29l0,-0.779l1.421,0l0,-10.955l-1.421,0l0,-0.779l2.288,0l0,8.058l3.016,-2.635l-1.248,0l0,-0.779l3.796,0l0,0.779l-1.352,0l-3.31,2.774l4.039,3.537l1.126,0l0,0.779l-3.64,0l0,-0.779l1.213,0l-3.64,-3.275l0,3.275l1.387,0l0,0.779l-3.675,0Z" style="fill:#231f20;fill-rule:nonzero;"/><path d="M42.425,54.923c-0.191,-1.734 -1.768,-2.894 -3.484,-2.894c-1.647,0 -3.172,1.265 -3.363,2.894l6.847,0Zm-6.847,0.779c0.138,1.856 1.595,2.983 3.398,2.983c1.178,0 2.34,-0.608 2.998,-1.596l0.971,0c-0.711,1.561 -2.409,2.375 -4.073,2.375c-2.271,0 -4.161,-1.664 -4.161,-3.986c0,-2.461 1.924,-4.231 4.351,-4.231c2.601,0 4.23,1.873 4.23,4.455l-7.714,0Z" style="fill:#231f20;fill-rule:nonzero;"/><path d="M63.101,46.777l0,0.832l-1.543,0l0,10.849l1.543,0l0,0.832l-4.004,0l0,-0.832l1.526,0l0,-9.879l-0.036,0l-4.437,10.192l-0.589,0l-4.437,-10.192l-0.036,0l0,9.879l1.439,0l0,0.832l-3.9,0l0,-0.832l1.526,0l0,-10.849l-1.526,0l0,-0.832l2.635,0l4.576,10.693l0.035,0l4.593,-10.693l2.635,0Z" style="fill:#231f20;fill-rule:nonzero;"/><path d="M68.384,58.685c1.977,0 3.432,-1.336 3.432,-3.328c0,-1.994 -1.455,-3.328 -3.432,-3.328c-1.976,0 -3.431,1.334 -3.431,3.328c0,1.992 1.455,3.328 3.431,3.328Zm0,-7.438c2.548,0 4.299,1.838 4.299,4.11c0,2.269 -1.751,4.107 -4.299,4.107c-2.548,0 -4.299,-1.838 -4.299,-4.107c0,-2.272 1.751,-4.11 4.299,-4.11Z" style="fill:#231f20;fill-rule:nonzero;"/><path d="M76.13,52.357l0.035,0c0.346,-0.623 1.092,-1.11 1.941,-1.11c1.075,0 1.699,0.694 1.699,1.7l-0.867,0c0,-0.555 -0.208,-0.918 -1.022,-0.918c-1.266,0 -1.768,1.593 -1.768,2.703l0,3.779l1.403,0l0,0.779l-3.709,0l0,-0.779l1.439,0l0,-6.311l-1.422,0l0,-0.779l2.271,0l0,0.936Z" style="fill:#231f20;fill-rule:nonzero;"/><path d="M88.175,54.923c-0.19,-1.734 -1.767,-2.894 -3.483,-2.894c-1.648,0 -3.173,1.265 -3.363,2.894l6.846,0Zm-6.846,0.779c0.138,1.856 1.594,2.983 3.397,2.983c1.179,0 2.34,-0.608 2.999,-1.596l0.971,0c-0.711,1.561 -2.41,2.375 -4.074,2.375c-2.271,0 -4.16,-1.664 -4.16,-3.986c0,-2.461 1.924,-4.231 4.351,-4.231c2.6,0 4.23,1.873 4.23,4.455l-7.714,0Z" style="fill:#231f20;fill-rule:nonzero;"/><path d="M96.822,53.138l0,5.32l1.491,0l0,0.832l-3.918,0l0,-0.832l1.49,0l0,-10.849l-1.49,0l0,-0.832l3.918,0l0,0.832l-1.491,0l0,4.697l6.691,0l0,-4.697l-1.491,0l0,-0.832l3.918,0l0,0.832l-1.491,0l0,10.849l1.491,0l0,0.832l-3.918,0l0,-0.832l1.491,0l0,-5.32l-6.691,0Z" style="fill:#231f20;fill-rule:nonzero;"/><path d="M107.722,55.2c0,1.959 1.248,3.485 3.242,3.485c1.75,0 3.241,-1.319 3.241,-3.485c0,-1.681 -1.248,-3.171 -3.241,-3.171c-1.873,0 -3.242,1.543 -3.242,3.171Zm7.384,3.311l1.334,0l0,0.779l-2.201,0l0,-1.387c-1.022,1.145 -2.357,1.561 -3.275,1.561c-2.133,0 -4.109,-1.543 -4.109,-4.228c0,-1.891 1.681,-3.989 4.109,-3.989c1.213,0 2.461,0.555 3.241,1.596l0.034,0l0,-1.422l2.201,0l0,0.779l-1.334,0l0,6.311Z" style="fill:#231f20;fill-rule:nonzero;"/><path d="M122.817,52.029c-1.888,0 -3.275,1.369 -3.275,3.328c0,1.959 1.387,3.328 3.275,3.328c1.89,0 3.277,-1.369 3.277,-3.328c0,-1.959 -1.387,-3.328 -3.277,-3.328Zm-4.073,0.171l-1.421,0l0,-0.779l2.287,0l0,1.44l0.036,0c0.519,-0.764 1.594,-1.614 3.12,-1.614c2.547,0 4.194,1.856 4.194,4.11c0,2.252 -1.647,4.107 -4.194,4.107c-1.387,0 -2.566,-0.867 -3.12,-1.611l-0.036,0l0,3.812l1.422,0l0,0.781l-3.709,0l0,-0.781l1.421,0l0,-9.465Z" style="fill:#231f20;fill-rule:nonzero;"/><path d="M133.406,52.029c-1.889,0 -3.276,1.369 -3.276,3.328c0,1.959 1.387,3.328 3.276,3.328c1.89,0 3.277,-1.369 3.277,-3.328c0,-1.959 -1.387,-3.328 -3.277,-3.328Zm-4.074,0.171l-1.421,0l0,-0.779l2.289,0l0,1.44l0.033,0c0.522,-0.764 1.596,-1.614 3.121,-1.614c2.548,0 4.196,1.856 4.196,4.11c0,2.252 -1.648,4.107 -4.196,4.107c-1.386,0 -2.565,-0.867 -3.121,-1.611l-0.033,0l0,3.812l1.421,0l0,0.781l-3.71,0l0,-0.781l1.421,0l0,-9.465Z" style="fill:#231f20;fill-rule:nonzero;"/><path d="M146.422,54.923c-0.191,-1.734 -1.768,-2.894 -3.484,-2.894c-1.647,0 -3.172,1.265 -3.363,2.894l6.847,0Zm-6.847,0.779c0.139,1.856 1.595,2.983 3.398,2.983c1.178,0 2.34,-0.608 2.999,-1.596l0.97,0c-0.711,1.561 -2.41,2.375 -4.074,2.375c-2.27,0 -4.16,-1.664 -4.16,-3.986c0,-2.461 1.925,-4.231 4.352,-4.231c2.599,0 4.229,1.873 4.229,4.455l-7.714,0Z" style="fill:#231f20;fill-rule:nonzero;"/><path d="M150.581,52.929l0.034,0c0.798,-1.092 1.993,-1.682 3.069,-1.682c2.478,0 2.773,1.319 2.773,3.139l0,4.125l1.369,0l0,0.779l-3.605,0l0,-0.779l1.37,0l0,-4.195c0,-1.75 -0.555,-2.287 -1.907,-2.287c-1.37,0 -2.669,0.988 -3.103,1.923l0,4.559l1.334,0l0,0.779l-3.605,0l0,-0.779l1.404,0l0,-6.311l-1.404,0l0,-0.779l2.271,0l0,1.508Z" style="fill:#231f20;fill-rule:nonzero;"/></g><g><path d="M12.198,40.025l-0.008,0.002c-10.772,-0.005 -11.937,-7.006 -11.94,-10.018l5.692,0.006c0.036,1.425 0.673,4.744 5.821,4.744c1.647,0.003 2.957,-0.247 3.907,-0.737c1.216,-0.628 1.833,-1.655 1.833,-3.053c-0.003,-2.209 -1.886,-2.845 -4.986,-3.629l-2.978,-0.747c-4.56,-1.139 -8.865,-2.214 -8.867,-8.811c0,-1.292 0.253,-3.775 1.97,-5.862c1.828,-2.226 4.776,-3.359 8.756,-3.357c3.808,0 6.715,1.166 8.648,3.466c2.002,2.376 2.243,5.138 2.256,6.215l-5.691,0.004c-0.144,-1.21 -0.524,-4.424 -5.629,-4.424c-1.25,0.002 -2.388,0.275 -3.214,0.766c-1.034,0.615 -1.557,1.538 -1.556,2.74c0.001,2.324 1.812,2.777 2.894,3.047l6.768,1.788c3.801,0.996 7.32,2.664 7.323,8.057c0.002,3.846 -1.54,6.632 -4.582,8.279c-2.532,1.375 -5.332,1.523 -6.417,1.524" style="fill:#ff0800;fill-rule:nonzero;"/><path d="M37.13,39.245l-5.926,0l0.003,-24.5l-8.407,-0.003l0,-5.39l22.713,0.007l0.001,5.384l-8.383,0l-0.001,24.502Z" style="fill:#ff0800;fill-rule:nonzero;"/><path d="M132.228,39.243l-21.198,0l-0.01,-29.89l20.544,0l0.003,5.415l-14.736,-0.001l0.003,6.142l13.538,-0.001l0,5.391l-13.539,0l0.004,7.538l15.392,0l-0.001,5.406Z" style="fill:#ff0800;fill-rule:nonzero;"/><path d="M59.955,39.243l-1.779,-6.127l-10.162,0.002l-1.931,6.125l-6.242,0l9.932,-29.884l6.784,0.003l9.837,29.881l-6.439,0Zm-10.356,-11.394l6.912,0.002l-3.403,-11.627l-3.509,11.625Z" style="fill:#ff0800;fill-rule:nonzero;"/><path d="M73.606,39.243l-5.926,0l-0.011,-29.877l12.751,0.004c5.359,0 8.687,3.678 8.689,9.598c0,1.542 -0.428,3.871 -1.636,5.79c-1.573,2.497 -4.021,3.766 -7.28,3.764l-6.592,0.002l0.005,10.719Zm-0.005,-15.988l5.314,0.004c4.269,-0.003 4.27,-3.209 4.271,-4.577c-0.003,-2.876 -1.465,-4.048 -5.047,-4.049l-4.541,-0.001l0.003,8.623Z" style="fill:#ff0800;fill-rule:nonzero;"/><path d="M155.059,9.747l0.878,0.001c0.541,-0.001 0.796,0.211 0.795,0.648c0.001,0.411 -0.261,0.585 -0.598,0.619l0.651,1.004l-0.381,-0.001l-0.619,-0.975l-0.373,-0.004l0,0.98l-0.353,-0.001l0,-2.271Zm0.353,1.01l0.368,-0.001c0.312,-0.003 0.599,-0.016 0.597,-0.375c0.002,-0.302 -0.257,-0.349 -0.499,-0.348l-0.467,0l0.001,0.724Z" style="fill:#ff0800;fill-rule:nonzero;"/><path d="M90.405,35.92l-0.003,-21.859c-0.002,-3.042 2.553,-5.508 5.704,-5.507c3.005,0.004 5.344,2.077 5.757,4.984l1.896,9.744l-5.424,1.056l-2.008,-10.312c0,0 -0.014,-0.127 -0.139,-0.118l-0.095,0.139l0.014,19.788l13.65,-0.003l-0.001,5.413l-16.358,-0.002c-1.681,0 -2.992,-1.705 -2.993,-3.323" style="fill:#ff0800;fill-rule:nonzero;"/><path d="M157.768,10.884c0,1.08 -0.875,1.955 -1.955,1.955c-1.079,0 -1.954,-0.875 -1.954,-1.955c0,-1.08 0.875,-1.955 1.954,-1.955c1.08,0 1.955,0.875 1.955,1.955m-1.956,-1.644c-0.908,0 -1.644,0.736 -1.644,1.644c0,0.908 0.736,1.644 1.644,1.644c0.908,0 1.644,-0.736 1.644,-1.644c0,-0.908 -0.736,-1.644 -1.644,-1.644" style="fill:#ff0800;fill-rule:nonzero;"/><path d="M145.179,40.025l-0.009,0.002c-10.773,-0.005 -11.936,-7.006 -11.94,-10.018l5.693,0.006c0.035,1.425 0.673,4.744 5.819,4.744c1.648,0.003 2.958,-0.247 3.909,-0.737c1.216,-0.628 1.832,-1.655 1.832,-3.053c-0.003,-2.209 -1.885,-2.845 -4.986,-3.629l-2.977,-0.747c-4.562,-1.139 -8.866,-2.214 -8.868,-8.811c0,-1.292 0.253,-3.775 1.97,-5.862c1.828,-2.226 4.777,-3.359 8.757,-3.357c3.808,0 6.715,1.166 8.647,3.466c2.002,2.376 2.244,5.138 2.256,6.215l-5.692,0.004c-0.143,-1.21 -0.523,-4.424 -5.627,-4.424c-1.251,0.002 -2.389,0.275 -3.215,0.766c-1.034,0.615 -1.557,1.538 -1.556,2.74c0.001,2.324 1.812,2.777 2.894,3.047l6.768,1.788c3.802,0.996 7.321,2.664 7.323,8.057c0.002,3.846 -1.54,6.632 -4.582,8.279c-2.532,1.375 -5.331,1.523 -6.416,1.524" style="fill:#ff0800;fill-rule:nonzero;"/></g></g></svg>