<?xml version="1.0" encoding="UTF-8" standalone="no"?>
<!DOCTYPE svg PUBLIC "-//W3C//DTD SVG 1.1//EN" "http://www.w3.org/Graphics/SVG/1.1/DTD/svg11.dtd">
<svg width="100%" height="100%" viewBox="0 0 1660 256" version="1.1" xmlns="http://www.w3.org/2000/svg" xmlns:xlink="http://www.w3.org/1999/xlink" xml:space="preserve" style="fill-rule:evenodd;clip-rule:evenodd;stroke-linejoin:round;stroke-miterlimit:1.41421;">
    <g transform="matrix(1,0,0,1,-306,0)">
        <g id="InfiniTitleEN" transform="matrix(6.48438,0,0,1,-1678.22,0)">
            <rect x="306" y="0" width="256" height="256" style="fill:none;"/>
            <g id="InfiniLogo" transform="matrix(0.154217,0,0,1,306.005,0)">
                <path d="M166.974,45.218C167.933,45.178 168.909,45.159 169.902,45.159C207.749,45.159 236.033,73.535 236.033,127.032C236.033,127.354 236.031,127.677 236.029,128C236.031,128.323 236.033,128.646 236.033,128.968C236.033,182.465 207.749,210.841 169.902,210.841C168.909,210.841 167.933,210.822 166.974,210.782C214.427,209.064 235.707,169.969 236.029,128C235.707,86.031 214.427,46.936 166.974,45.218ZM162.677,45.529L162.677,45.164C164.133,45.148 165.565,45.166 166.974,45.218C165.503,45.277 164.072,45.382 162.677,45.529L162.677,87.04C165.306,87.04 167.78,87.227 170.107,87.586C156.183,90.83 150.812,107.985 145.602,128C150.812,148.014 156.183,165.17 170.107,168.414C167.78,168.773 165.306,168.96 162.677,168.96L162.677,210.471C164.072,210.618 165.503,210.723 166.974,210.782C165.565,210.834 164.133,210.852 162.677,210.836L162.677,210.471C142.967,208.394 130.768,197.848 123.026,185.993C131.923,174.952 136.938,160.202 141.004,145.515C142.652,139.615 144.121,133.692 145.602,128C144.121,122.308 142.652,116.385 141.004,110.485C136.938,95.798 131.923,81.048 123.026,70.007C130.767,58.152 142.966,47.606 162.677,45.529ZM86.388,51.893C103.396,52.847 114.851,59.861 123.026,70.007C114.822,82.57 111.624,96.601 109.795,103.585C107.22,113.15 105.068,121.214 103.155,128C105.068,134.786 107.22,142.85 109.795,152.415C111.624,159.399 114.822,173.43 123.026,185.993C114.85,196.139 103.396,203.153 86.388,204.107L86.388,204.229C85.604,204.229 84.828,204.219 84.06,204.199C84.847,204.18 85.623,204.15 86.388,204.107L86.388,162.345C85.187,162.278 84.029,162.176 82.913,162.038C92.393,160.516 96.173,152.785 103.155,128C96.173,103.215 92.393,95.484 82.913,93.962C84.029,93.824 85.187,93.722 86.388,93.655L86.388,51.893C85.623,51.85 84.847,51.819 84.06,51.801C84.828,51.781 85.604,51.771 86.388,51.771L86.388,51.893ZM19.993,128C19.976,127.129 19.967,126.255 19.967,125.381C19.967,89.8 40.17,51.782 82.342,51.782C82.921,51.782 83.493,51.788 84.06,51.801C39.109,52.987 20.766,88.601 19.993,128C20.766,167.399 39.109,203.013 84.06,204.199C83.493,204.212 82.921,204.218 82.342,204.218C40.17,204.218 19.967,166.2 19.967,130.619C19.967,129.745 19.976,128.871 19.993,128ZM170.107,87.586C171.662,87.223 173.324,87.035 175.103,87.035C196.199,87.035 200.822,110.206 200.822,125.378C200.822,126.256 200.807,127.131 200.776,128C200.807,128.869 200.822,129.744 200.822,130.622C200.822,145.794 196.199,168.965 175.103,168.965C173.324,168.965 171.662,168.777 170.107,168.414C191.158,165.168 200.066,147.87 200.776,128C200.066,108.13 191.158,90.832 170.107,87.586ZM55.289,128C55.213,126.508 55.178,124.99 55.178,123.45C55.178,109.657 61.247,93.658 78.585,93.658C80.155,93.658 81.59,93.749 82.913,93.962C62.655,96.458 56.178,110.411 55.289,128C56.178,145.589 62.655,159.542 82.913,162.038C81.59,162.251 80.155,162.342 78.585,162.342C61.247,162.342 55.178,146.343 55.178,132.55C55.178,131.01 55.213,129.492 55.289,128Z" style="fill:rgb(200,200,200);"/>
                <g transform="matrix(1.40695e-15,-22.9772,24.0755,1.4742e-15,-1906.52,1769.92)">
                    <path d="M67.853,85.946C67.829,88.058 69.604,88.993 71.501,88.993C73.829,88.993 75.064,87.818 75.064,86.246C75.064,84.302 73.145,83.906 72.521,83.75C70.372,83.198 69.964,83.114 69.964,82.453C69.964,81.733 70.66,81.481 71.26,81.481C72.161,81.481 72.893,81.745 72.953,82.777L74.776,82.777C74.776,80.798 73.133,80.019 71.344,80.019C69.796,80.019 68.141,80.858 68.141,82.609C68.141,84.218 69.424,84.71 70.696,85.046C71.957,85.382 73.241,85.538 73.241,86.462C73.241,87.339 72.233,87.531 71.573,87.531C70.564,87.531 69.676,87.087 69.676,85.946L67.853,85.946Z" style="fill:white;fill-rule:nonzero;"/>
                </g>
            </g>
            <g transform="matrix(2.90671,0,0,18.8482,-1667.21,-2536.3)">
                <path d="M692.964,145.528L694.859,145.528L696.671,136.961L694.776,136.961L692.964,145.528Z" style="fill:white;fill-rule:nonzero;"/>
                <path d="M696.42,145.528L698.124,145.528L698.82,142.228C699,141.364 699.528,140.5 700.56,140.5C700.956,140.5 701.376,140.764 701.376,141.136C701.376,141.304 701.316,141.712 701.268,141.892L700.512,145.528L702.216,145.528L702.983,141.892C703.031,141.676 703.163,141.076 703.163,140.824C703.163,139.745 702.527,139.157 701.352,139.157C700.464,139.157 699.732,139.505 699.18,140.188L699.156,140.188L699.348,139.325L697.716,139.325L696.42,145.528Z" style="fill:white;fill-rule:nonzero;"/>
                <path d="M711.515,136.961L709.811,136.961L709.499,138.364L711.203,138.364L711.515,136.961ZM707.987,145.528L709.691,145.528L711.011,139.325L709.307,139.325L707.987,145.528ZM704.1,145.528L705.804,145.528L706.872,140.464L708.095,140.464L708.335,139.325L707.124,139.325C707.304,138.604 707.292,138.172 708.131,138.172C708.311,138.172 708.503,138.196 708.683,138.208L708.947,136.985C708.575,136.925 708.203,136.889 707.832,136.889C706.044,136.889 705.756,137.74 705.42,139.325L704.4,139.325L704.16,140.464L705.168,140.464L704.1,145.528Z" style="fill:white;fill-rule:nonzero;"/>
                <path d="M711.084,145.528L712.788,145.528L713.484,142.228C713.664,141.364 714.192,140.5 715.224,140.5C715.62,140.5 716.04,140.764 716.04,141.136C716.04,141.304 715.98,141.712 715.932,141.892L715.176,145.528L716.88,145.528L717.647,141.892C717.695,141.676 717.827,141.076 717.827,140.824C717.827,139.745 717.191,139.157 716.016,139.157C715.128,139.157 714.396,139.505 713.844,140.188L713.82,140.188L714.012,139.325L712.38,139.325L711.084,145.528Z" style="fill:white;fill-rule:nonzero;"/>
                <path d="M718.416,145.528L720.132,145.528L721.451,139.325L719.736,139.325L718.416,145.528ZM721.955,136.961L720.239,136.961L719.928,138.364L721.643,138.364L721.955,136.961Z" style="fill:white;fill-rule:nonzero;"/>
            </g>
            <g transform="matrix(2.90671,0,0,18.8482,-1578.86,-2554.65)">
                <path d="M694.224,145.335C693.74,145.335 693.506,144.979 693.506,144.535C693.506,143.939 693.878,143.094 694.581,143.094C695.1,143.094 695.334,143.42 695.334,143.909C695.334,144.551 694.952,145.335 694.224,145.335ZM692.956,145.528L693.246,145.528L693.373,144.927L693.384,144.927C693.47,145.361 693.827,145.605 694.265,145.605C695.161,145.605 695.655,144.719 695.655,143.919C695.655,143.292 695.324,142.824 694.657,142.824C694.26,142.824 693.934,143.048 693.75,143.364L693.74,143.364L694.051,141.892L693.73,141.892L692.956,145.528Z" style="fill:white;fill-rule:nonzero;"/>
                <path d="M695.655,146.476C695.747,146.481 695.844,146.501 695.935,146.501C696.21,146.501 696.439,146.384 696.572,146.15L698.441,142.901L698.094,142.901L696.882,145.132L696.872,145.132L696.495,142.901L696.159,142.901L696.643,145.529L696.404,145.946C696.322,146.084 696.185,146.232 695.991,146.232C695.9,146.232 695.808,146.227 695.716,146.216L695.655,146.476Z" style="fill:white;fill-rule:nonzero;"/>
                <path d="M699.653,144.362C699.623,144.495 699.608,144.638 699.608,144.775C699.608,145.371 700.02,145.605 700.559,145.605C701.252,145.605 701.548,145.244 701.685,144.612L702.266,141.892L701.919,141.892L701.364,144.485C701.273,144.913 701.11,145.31 700.585,145.31C700.244,145.31 699.953,145.182 699.953,144.811C699.953,144.663 699.974,144.51 699.999,144.362L699.653,144.362Z" style="fill:white;fill-rule:nonzero;"/>
                <path d="M702.45,144.275L703.728,144.275L703.789,143.98L702.511,143.98L702.45,144.275Z" style="fill:white;fill-rule:nonzero;"/>
                <path d="M704.166,145.528L704.512,145.528L704.884,143.796L706.651,143.796L706.707,143.502L704.95,143.502L705.23,142.187L707.211,142.187L707.272,141.892L704.945,141.892L704.166,145.528Z" style="fill:white;fill-rule:nonzero;"/>
                <path d="M709.392,142.187L710.222,142.187C710.95,142.187 711.317,142.554 711.317,143.282C711.317,144.291 710.813,145.244 709.606,145.233L708.73,145.233L709.392,142.187ZM708.317,145.528L709.672,145.528C710.976,145.528 711.663,144.495 711.663,143.348C711.663,142.472 711.322,141.892 710.278,141.892L709.107,141.892L708.317,145.528Z" style="fill:white;fill-rule:nonzero;"/>
                <path d="M714.245,144.301C714.266,144.143 714.271,143.996 714.271,143.848C714.271,143.236 713.905,142.824 713.273,142.824C712.371,142.824 711.852,143.659 711.852,144.489C711.852,145.172 712.228,145.605 712.921,145.605C713.543,145.605 713.945,145.269 714.118,144.683L713.798,144.683C713.675,145.065 713.354,145.335 712.937,145.335C712.417,145.335 712.172,144.979 712.172,144.505C712.172,144.433 712.177,144.362 712.188,144.301L714.245,144.301ZM712.228,144.031C712.34,143.542 712.702,143.094 713.232,143.094C713.675,143.094 713.95,143.389 713.95,143.828C713.95,143.894 713.945,143.96 713.945,144.031L712.228,144.031Z" style="fill:white;fill-rule:nonzero;"/>
                <path d="M714.419,144.673C714.388,145.33 714.902,145.605 715.407,145.605C715.906,145.605 716.466,145.391 716.466,144.8C716.466,144.316 715.972,144.169 715.611,144.026C715.315,143.909 715.055,143.786 715.055,143.542C715.055,143.18 715.427,143.094 715.707,143.094C716.069,143.094 716.349,143.267 716.324,143.669L716.644,143.669C716.654,143.063 716.258,142.824 715.707,142.824C715.284,142.824 714.735,143.033 714.735,143.542C714.735,143.975 715.086,144.133 715.437,144.27C715.784,144.403 716.146,144.51 716.146,144.851C716.146,145.188 715.769,145.335 715.483,145.335C715.111,145.335 714.734,145.182 714.739,144.673L714.419,144.673Z" style="fill:white;fill-rule:nonzero;"/>
                <path d="M716.818,145.528L717.139,145.528L717.434,144.153C717.541,143.659 717.847,143.195 718.422,143.185C718.483,143.185 718.544,143.19 718.605,143.19L718.676,142.87C718.62,142.865 718.559,142.865 718.503,142.865C718.035,142.86 717.755,143.129 717.551,143.506L717.541,143.506L717.673,142.901L717.383,142.901L716.818,145.528Z" style="fill:white;fill-rule:nonzero;"/>
                <path d="M720.016,142.824C719.079,142.824 718.55,143.649 718.55,144.51C718.55,145.167 718.921,145.605 719.599,145.605C720.572,145.605 721.055,144.739 721.055,143.853C721.055,143.206 720.628,142.824 720.016,142.824ZM719.66,145.335C719.125,145.335 718.87,144.989 718.87,144.479C718.87,143.863 719.257,143.094 719.96,143.094C720.475,143.094 720.735,143.43 720.735,143.919C720.735,144.53 720.363,145.335 719.66,145.335Z" style="fill:white;fill-rule:nonzero;"/>
                <path d="M723.79,143.72C723.81,143.109 723.378,142.824 722.808,142.824C721.906,142.824 721.382,143.7 721.382,144.52C721.382,145.167 721.743,145.605 722.395,145.605C723.032,145.605 723.429,145.279 723.622,144.678L723.302,144.678C723.164,145.06 722.858,145.335 722.436,145.335C721.936,145.335 721.702,144.989 721.702,144.52C721.702,143.837 722.069,143.094 722.838,143.094C723.215,143.094 723.495,143.328 723.47,143.72L723.79,143.72Z" style="fill:white;fill-rule:nonzero;"/>
                <path d="M723.898,145.528L724.219,145.528L724.509,144.178C724.652,143.511 725.074,143.094 725.538,143.094C725.823,143.094 726.088,143.221 726.088,143.567C726.088,143.654 726.073,143.751 726.052,143.832L725.685,145.528L726.006,145.528L726.367,143.842C726.393,143.72 726.408,143.613 726.408,143.532C726.408,143.028 726.073,142.824 725.614,142.824C725.222,142.824 724.876,143.068 724.692,143.379L724.682,143.379L725.003,141.892L724.682,141.892L723.898,145.528Z" style="fill:white;fill-rule:nonzero;"/>
                <path d="M729.153,144.301C729.174,144.143 729.179,143.996 729.179,143.848C729.179,143.236 728.813,142.824 728.181,142.824C727.279,142.824 726.76,143.659 726.76,144.489C726.76,145.172 727.136,145.605 727.829,145.605C728.451,145.605 728.854,145.269 729.026,144.683L728.706,144.683C728.583,145.065 728.262,145.335 727.845,145.335C727.325,145.335 727.08,144.979 727.08,144.505C727.08,144.433 727.086,144.362 727.096,144.301L729.153,144.301ZM727.136,144.031C727.249,143.542 727.61,143.094 728.14,143.094C728.583,143.094 728.859,143.389 728.859,143.828C728.859,143.894 728.854,143.96 728.854,144.031L727.136,144.031Z" style="fill:white;fill-rule:nonzero;"/>
                <path d="M729.276,145.528L729.597,145.528L729.892,144.153C729.999,143.659 730.305,143.195 730.88,143.185C730.941,143.185 731.002,143.19 731.063,143.19L731.135,142.87C731.079,142.865 731.018,142.865 730.962,142.865C730.493,142.86 730.213,143.129 730.009,143.506L729.999,143.506L730.132,142.901L729.841,142.901L729.276,145.528Z" style="fill:white;fill-rule:nonzero;"/>
                <path d="M730.932,144.673C730.901,145.33 731.415,145.605 731.919,145.605C732.419,145.605 732.978,145.391 732.978,144.8C732.978,144.316 732.485,144.169 732.123,144.026C731.828,143.909 731.568,143.786 731.568,143.542C731.568,143.18 731.94,143.094 732.22,143.094C732.582,143.094 732.862,143.267 732.836,143.669L733.157,143.669C733.167,143.063 732.77,142.824 732.22,142.824C731.797,142.824 731.247,143.033 731.247,143.542C731.247,143.975 731.598,144.133 731.95,144.27C732.296,144.403 732.658,144.51 732.658,144.851C732.658,145.188 732.281,145.335 731.996,145.335C731.624,145.335 731.247,145.182 731.252,144.673L730.932,144.673Z" style="fill:white;fill-rule:nonzero;"/>
            </g>
        </g>
    </g>
</svg>
