<?xml version="1.0" encoding="UTF-8" standalone="no"?>
<!DOCTYPE svg PUBLIC "-//W3C//DTD SVG 1.1//EN" "http://www.w3.org/Graphics/SVG/1.1/DTD/svg11.dtd">
<svg width="100%" height="100%" viewBox="0 0 1660 256" version="1.1" xmlns="http://www.w3.org/2000/svg" xmlns:xlink="http://www.w3.org/1999/xlink" xml:space="preserve" style="fill-rule:evenodd;clip-rule:evenodd;stroke-linejoin:round;stroke-miterlimit:1.41421;">
    <g transform="matrix(1,0,0,1,-306,0)">
        <g id="InfiniTitle" transform="matrix(6.48438,0,0,1,-1678.22,0)">
            <rect x="306" y="0" width="256" height="256" style="fill:none;"/>
            <g id="InfiniLogo" transform="matrix(0.154217,0,0,1,306.005,0)">
                <path d="M166.974,45.218C167.933,45.178 168.909,45.159 169.902,45.159C207.749,45.159 236.033,73.535 236.033,127.032C236.033,127.354 236.031,127.677 236.029,128C236.031,128.323 236.033,128.646 236.033,128.968C236.033,182.465 207.749,210.841 169.902,210.841C168.909,210.841 167.933,210.822 166.974,210.782C214.427,209.064 235.707,169.969 236.029,128C235.707,86.031 214.427,46.936 166.974,45.218ZM162.677,45.529L162.677,45.164C164.133,45.148 165.565,45.166 166.974,45.218C165.503,45.277 164.072,45.382 162.677,45.529L162.677,87.04C165.306,87.04 167.78,87.227 170.107,87.586C156.183,90.83 150.812,107.985 145.602,128C150.812,148.014 156.183,165.17 170.107,168.414C167.78,168.773 165.306,168.96 162.677,168.96L162.677,210.471C164.072,210.618 165.503,210.723 166.974,210.782C165.565,210.834 164.133,210.852 162.677,210.836L162.677,210.471C142.967,208.394 130.768,197.848 123.026,185.993C131.923,174.952 136.938,160.202 141.004,145.515C142.652,139.615 144.121,133.692 145.602,128C144.121,122.308 142.652,116.385 141.004,110.485C136.938,95.798 131.923,81.048 123.026,70.007C130.767,58.152 142.966,47.606 162.677,45.529ZM86.388,51.893C103.396,52.847 114.851,59.861 123.026,70.007C114.822,82.57 111.624,96.601 109.795,103.585C107.22,113.15 105.068,121.214 103.155,128C105.068,134.786 107.22,142.85 109.795,152.415C111.624,159.399 114.822,173.43 123.026,185.993C114.85,196.139 103.396,203.153 86.388,204.107L86.388,204.229C85.604,204.229 84.828,204.219 84.06,204.199C84.847,204.18 85.623,204.15 86.388,204.107L86.388,162.345C85.187,162.278 84.029,162.176 82.913,162.038C92.393,160.516 96.173,152.785 103.155,128C96.173,103.215 92.393,95.484 82.913,93.962C84.029,93.824 85.187,93.722 86.388,93.655L86.388,51.893C85.623,51.85 84.847,51.819 84.06,51.801C84.828,51.781 85.604,51.771 86.388,51.771L86.388,51.893ZM19.993,128C19.976,127.129 19.967,126.255 19.967,125.381C19.967,89.8 40.17,51.782 82.342,51.782C82.921,51.782 83.493,51.788 84.06,51.801C39.109,52.987 20.766,88.601 19.993,128C20.766,167.399 39.109,203.013 84.06,204.199C83.493,204.212 82.921,204.218 82.342,204.218C40.17,204.218 19.967,166.2 19.967,130.619C19.967,129.745 19.976,128.871 19.993,128ZM170.107,87.586C171.662,87.223 173.324,87.035 175.103,87.035C196.199,87.035 200.822,110.206 200.822,125.378C200.822,126.256 200.807,127.131 200.776,128C200.807,128.869 200.822,129.744 200.822,130.622C200.822,145.794 196.199,168.965 175.103,168.965C173.324,168.965 171.662,168.777 170.107,168.414C191.158,165.168 200.066,147.87 200.776,128C200.066,108.13 191.158,90.832 170.107,87.586ZM55.289,128C55.213,126.508 55.178,124.99 55.178,123.45C55.178,109.657 61.247,93.658 78.585,93.658C80.155,93.658 81.59,93.749 82.913,93.962C62.655,96.458 56.178,110.411 55.289,128C56.178,145.589 62.655,159.542 82.913,162.038C81.59,162.251 80.155,162.342 78.585,162.342C61.247,162.342 55.178,146.343 55.178,132.55C55.178,131.01 55.213,129.492 55.289,128Z" style="fill:rgb(200,200,200);"/>
                <g transform="matrix(1.40695e-15,-22.9772,24.0755,1.4742e-15,-1906.52,1769.92)">
                    <path d="M67.853,85.946C67.829,88.058 69.604,88.993 71.501,88.993C73.829,88.993 75.064,87.818 75.064,86.246C75.064,84.302 73.145,83.906 72.521,83.75C70.372,83.198 69.964,83.114 69.964,82.453C69.964,81.733 70.66,81.481 71.26,81.481C72.161,81.481 72.893,81.745 72.953,82.777L74.776,82.777C74.776,80.798 73.133,80.019 71.344,80.019C69.796,80.019 68.141,80.858 68.141,82.609C68.141,84.218 69.424,84.71 70.696,85.046C71.957,85.382 73.241,85.538 73.241,86.462C73.241,87.339 72.233,87.531 71.573,87.531C70.564,87.531 69.676,87.087 69.676,85.946L67.853,85.946Z" style="fill:white;"/>
                </g>
            </g>
            <g transform="matrix(2.90671,0,0,18.8482,-1667.21,-2536.3)">
                <path d="M692.964,145.528L694.859,145.528L696.671,136.961L694.776,136.961L692.964,145.528Z" style="fill:white;fill-rule:nonzero;"/>
                <path d="M696.42,145.528L698.124,145.528L698.82,142.228C699,141.364 699.528,140.5 700.56,140.5C700.956,140.5 701.376,140.764 701.376,141.136C701.376,141.304 701.316,141.712 701.268,141.892L700.512,145.528L702.216,145.528L702.983,141.892C703.031,141.676 703.163,141.076 703.163,140.824C703.163,139.745 702.527,139.157 701.352,139.157C700.464,139.157 699.732,139.505 699.18,140.188L699.156,140.188L699.348,139.325L697.716,139.325L696.42,145.528Z" style="fill:white;fill-rule:nonzero;"/>
                <path d="M711.515,136.961L709.811,136.961L709.499,138.364L711.203,138.364L711.515,136.961ZM707.987,145.528L709.691,145.528L711.011,139.325L709.307,139.325L707.987,145.528ZM704.1,145.528L705.804,145.528L706.872,140.464L708.095,140.464L708.335,139.325L707.124,139.325C707.304,138.604 707.292,138.172 708.131,138.172C708.311,138.172 708.503,138.196 708.683,138.208L708.947,136.985C708.575,136.925 708.203,136.889 707.832,136.889C706.044,136.889 705.756,137.74 705.42,139.325L704.4,139.325L704.16,140.464L705.168,140.464L704.1,145.528Z" style="fill:white;fill-rule:nonzero;"/>
                <path d="M711.084,145.528L712.788,145.528L713.484,142.228C713.664,141.364 714.192,140.5 715.224,140.5C715.62,140.5 716.04,140.764 716.04,141.136C716.04,141.304 715.98,141.712 715.932,141.892L715.176,145.528L716.88,145.528L717.647,141.892C717.695,141.676 717.827,141.076 717.827,140.824C717.827,139.745 717.191,139.157 716.016,139.157C715.128,139.157 714.396,139.505 713.844,140.188L713.82,140.188L714.012,139.325L712.38,139.325L711.084,145.528Z" style="fill:white;fill-rule:nonzero;"/>
                <path d="M718.416,145.528L720.132,145.528L721.451,139.325L719.736,139.325L718.416,145.528ZM721.955,136.961L720.239,136.961L719.928,138.364L721.643,138.364L721.955,136.961Z" style="fill:white;fill-rule:nonzero;"/>
            </g>
            <g transform="matrix(2.90671,0,0,18.8482,-1578.86,-2554.65)">
                <path d="M694.677,143.094C695.161,143.094 695.385,143.43 695.385,143.878C695.385,144.52 695.003,145.335 694.265,145.335C693.796,145.335 693.531,145.035 693.531,144.576C693.531,143.924 693.939,143.094 694.677,143.094ZM692.778,146.501L693.098,146.501L693.419,145.004L693.429,145.004C693.501,145.432 693.857,145.605 694.27,145.605C695.151,145.605 695.706,144.704 695.706,143.899C695.706,143.257 695.38,142.824 694.708,142.824C694.244,142.824 693.974,143.028 693.75,143.374L693.74,143.374L693.842,142.901L693.552,142.901L692.778,146.501Z" style="fill:white;fill-rule:nonzero;"/>
                <path d="M697.738,144.566C697.636,145.025 697.31,145.335 696.796,145.335C696.49,145.335 696.21,145.198 696.21,144.861C696.21,144.311 696.857,144.291 697.249,144.26C697.412,144.25 697.728,144.24 697.83,144.113L697.84,144.123L697.738,144.566ZM696.572,143.685C696.638,143.246 696.989,143.094 697.397,143.094C697.642,143.094 697.952,143.16 697.952,143.471C697.952,143.817 697.845,143.934 697.636,143.985C697.433,144.036 697.137,144.011 696.801,144.062C696.332,144.143 695.89,144.321 695.89,144.877C695.89,145.391 696.251,145.605 696.729,145.605C697.096,145.605 697.458,145.427 697.642,145.121L697.652,145.131C697.647,145.177 697.642,145.228 697.642,145.274C697.647,145.447 697.743,145.559 697.921,145.559C698.008,145.559 698.115,145.549 698.186,145.533L698.232,145.279C698.186,145.284 698.15,145.289 698.105,145.289C698.028,145.289 697.936,145.274 697.936,145.182C697.936,145.025 697.992,144.887 698.11,144.296C698.161,144.062 698.273,143.664 698.273,143.409C698.273,142.946 697.718,142.824 697.361,142.824C696.796,142.824 696.337,143.089 696.251,143.685L696.572,143.685Z" style="fill:white;fill-rule:nonzero;"/>
                <path d="M698.523,145.528L698.844,145.528L699.139,144.153C699.246,143.659 699.551,143.195 700.127,143.185C700.188,143.185 700.249,143.19 700.31,143.19L700.381,142.87C700.325,142.865 700.264,142.865 700.208,142.865C699.74,142.86 699.46,143.129 699.256,143.506L699.246,143.506L699.378,142.901L699.088,142.901L698.523,145.528Z" style="fill:white;fill-rule:nonzero;"/>
                <path d="M701.543,144.362C701.513,144.495 701.497,144.638 701.497,144.775C701.497,145.371 701.909,145.605 702.449,145.605C703.142,145.605 703.437,145.244 703.575,144.612L704.155,141.892L703.809,141.892L703.254,144.485C703.162,144.913 702.999,145.31 702.475,145.31C702.133,145.31 701.843,145.182 701.843,144.811C701.843,144.663 701.863,144.51 701.889,144.362L701.543,144.362Z" style="fill:white;fill-rule:nonzero;"/>
                <path d="M704.339,144.275L705.617,144.275L705.678,143.98L704.4,143.98L704.339,144.275Z" style="fill:white;fill-rule:nonzero;"/>
                <path d="M706.056,145.528L706.402,145.528L706.774,143.796L708.541,143.796L708.597,143.502L706.84,143.502L707.12,142.187L709.101,142.187L709.162,141.892L706.835,141.892L706.056,145.528Z" style="fill:white;fill-rule:nonzero;"/>
                <path d="M711.282,142.187L712.112,142.187C712.84,142.187 713.207,142.554 713.207,143.282C713.207,144.291 712.703,145.244 711.495,145.233L710.619,145.233L711.282,142.187ZM710.207,145.528L711.562,145.528C712.866,145.528 713.553,144.495 713.553,143.348C713.553,142.472 713.212,141.892 712.168,141.892L710.996,141.892L710.207,145.528Z" style="fill:white;fill-rule:nonzero;"/>
                <path d="M716.135,144.301C716.155,144.143 716.16,143.996 716.16,143.848C716.16,143.236 715.794,142.824 715.162,142.824C714.261,142.824 713.742,143.659 713.742,144.489C713.742,145.172 714.118,145.605 714.811,145.605C715.432,145.605 715.835,145.269 716.008,144.683L715.687,144.683C715.565,145.065 715.244,145.335 714.826,145.335C714.306,145.335 714.062,144.979 714.062,144.505C714.062,144.433 714.067,144.362 714.077,144.301L716.135,144.301ZM714.118,144.031C714.23,143.542 714.592,143.094 715.122,143.094C715.565,143.094 715.84,143.389 715.84,143.828C715.84,143.894 715.835,143.96 715.835,144.031L714.118,144.031Z" style="fill:white;fill-rule:nonzero;"/>
                <path d="M716.309,144.673C716.278,145.33 716.792,145.605 717.296,145.605C717.796,145.605 718.356,145.391 718.356,144.8C718.356,144.316 717.862,144.169 717.5,144.026C717.205,143.909 716.945,143.786 716.945,143.542C716.945,143.18 717.317,143.094 717.597,143.094C717.959,143.094 718.239,143.267 718.214,143.669L718.534,143.669C718.544,143.063 718.147,142.824 717.597,142.824C717.174,142.824 716.624,143.033 716.624,143.542C716.624,143.975 716.975,144.133 717.327,144.27C717.674,144.403 718.035,144.51 718.035,144.851C718.035,145.188 717.658,145.335 717.373,145.335C717.001,145.335 716.624,145.182 716.629,144.673L716.309,144.673Z" style="fill:white;fill-rule:nonzero;"/>
                <path d="M718.708,145.528L719.028,145.528L719.324,144.153C719.431,143.659 719.736,143.195 720.311,143.185C720.373,143.185 720.434,143.19 720.495,143.19L720.566,142.87C720.51,142.865 720.449,142.865 720.393,142.865C719.925,142.86 719.644,143.129 719.441,143.506L719.431,143.506L719.563,142.901L719.273,142.901L718.708,145.528Z" style="fill:white;fill-rule:nonzero;"/>
                <path d="M721.906,142.824C720.968,142.824 720.439,143.649 720.439,144.51C720.439,145.167 720.811,145.605 721.488,145.605C722.461,145.605 722.945,144.739 722.945,143.853C722.945,143.206 722.517,142.824 721.906,142.824ZM721.549,145.335C721.014,145.335 720.76,144.989 720.76,144.479C720.76,143.863 721.147,143.094 721.85,143.094C722.365,143.094 722.624,143.43 722.624,143.919C722.624,144.53 722.252,145.335 721.549,145.335Z" style="fill:white;fill-rule:nonzero;"/>
                <path d="M725.68,143.72C725.7,143.109 725.268,142.824 724.697,142.824C723.795,142.824 723.271,143.7 723.271,144.52C723.271,145.167 723.632,145.605 724.284,145.605C724.921,145.605 725.319,145.279 725.512,144.678L725.191,144.678C725.054,145.06 724.748,145.335 724.325,145.335C723.826,145.335 723.591,144.989 723.591,144.52C723.591,143.837 723.958,143.094 724.728,143.094C725.105,143.094 725.385,143.328 725.36,143.72L725.68,143.72Z" style="fill:white;fill-rule:nonzero;"/>
                <path d="M725.787,145.528L726.108,145.528L726.399,144.178C726.541,143.511 726.964,143.094 727.427,143.094C727.713,143.094 727.977,143.221 727.977,143.567C727.977,143.654 727.962,143.751 727.942,143.832L727.575,145.528L727.896,145.528L728.257,143.842C728.282,143.72 728.298,143.613 728.298,143.532C728.298,143.028 727.962,142.824 727.504,142.824C727.112,142.824 726.765,143.068 726.582,143.379L726.572,143.379L726.893,141.892L726.572,141.892L725.787,145.528Z" style="fill:white;fill-rule:nonzero;"/>
                <path d="M731.043,144.301C731.063,144.143 731.068,143.996 731.068,143.848C731.068,143.236 730.702,142.824 730.071,142.824C729.169,142.824 728.65,143.659 728.65,144.489C728.65,145.172 729.026,145.605 729.719,145.605C730.341,145.605 730.743,145.269 730.916,144.683L730.595,144.683C730.473,145.065 730.152,145.335 729.734,145.335C729.215,145.335 728.97,144.979 728.97,144.505C728.97,144.433 728.975,144.362 728.985,144.301L731.043,144.301ZM729.026,144.031C729.138,143.542 729.5,143.094 730.03,143.094C730.473,143.094 730.748,143.389 730.748,143.828C730.748,143.894 730.743,143.96 730.743,144.031L729.026,144.031Z" style="fill:white;fill-rule:nonzero;"/>
                <path d="M731.166,145.528L731.487,145.528L731.782,144.153C731.889,143.659 732.194,143.195 732.77,143.185C732.831,143.185 732.892,143.19 732.953,143.19L733.024,142.87C732.968,142.865 732.907,142.865 732.851,142.865C732.383,142.86 732.103,143.129 731.899,143.506L731.889,143.506L732.021,142.901L731.731,142.901L731.166,145.528Z" style="fill:white;fill-rule:nonzero;"/>
                <path d="M732.821,144.673C732.791,145.33 733.305,145.605 733.809,145.605C734.308,145.605 734.868,145.391 734.868,144.8C734.868,144.316 734.375,144.169 734.013,144.026C733.717,143.909 733.457,143.786 733.457,143.542C733.457,143.18 733.829,143.094 734.11,143.094C734.471,143.094 734.752,143.267 734.726,143.669L735.046,143.669C735.057,143.063 734.66,142.824 734.11,142.824C733.687,142.824 733.137,143.033 733.137,143.542C733.137,143.975 733.488,144.133 733.839,144.27C734.186,144.403 734.548,144.51 734.548,144.851C734.548,145.188 734.171,145.335 733.885,145.335C733.513,145.335 733.136,145.182 733.141,144.673L732.821,144.673Z" style="fill:white;fill-rule:nonzero;"/>
            </g>
        </g>
    </g>
</svg>
